<svg xmlns="http://www.w3.org/2000/svg" width="100%" height="auto" viewBox="0 0 1024 1024" version="1.1">
	<path d="M 472.808 50.936 C 471.454 52.001, 466.576 58.864, 461.968 66.186 C 452.671 80.960, 442.826 94.212, 420.128 122.500 C 396.135 152.403, 388.846 164.321, 384.824 180.225 C 382.198 190.607, 382.646 205.242, 385.873 214.500 L 387.964 220.500 384.232 223.883 C 378.568 229.017, 364.036 238.344, 359.240 239.924 C 355.685 241.094, 354.570 241.108, 352.508 240.004 C 350.235 238.788, 343.202 230.788, 330.500 214.973 C 317.787 199.142, 301.765 189.670, 279.500 184.822 C 270.474 182.856, 241.020 183.155, 227.500 185.350 C 203.497 189.246, 183.412 195.513, 172.368 202.553 C 160.053 210.403, 156.060 222.905, 161.100 237.830 C 163.924 246.194, 173.810 262.427, 184.014 275.458 C 194.204 288.471, 214.078 310.046, 220.898 315.500 C 223.649 317.700, 225.923 319.801, 225.950 320.169 C 226.019 321.090, 213.512 327.796, 187.500 340.786 C 154.131 357.449, 129.559 368.016, 83.360 385.568 L 57.220 395.500 55.016 407 C 49.575 435.385, 45.853 459.226, 41.589 493 C 37.002 529.338, 36.499 538.459, 36.517 585 C 36.533 628.199, 36.614 630.070, 39.300 649 C 48.582 714.412, 65.873 761.884, 98.306 811 C 137.809 870.823, 195.409 922.648, 268 963.681 C 280.691 970.855, 316.349 989.003, 317.739 988.996 C 318.158 988.994, 319.358 986.857, 320.406 984.246 C 332.421 954.334, 357.710 901.482, 371.722 877 C 401.179 825.533, 425.976 794.170, 456.500 769.773 C 463.100 764.498, 472.775 755.805, 478 750.455 L 487.500 740.727 493.500 742.396 C 506.797 746.094, 525.251 750.108, 538.500 752.183 C 558.565 755.325, 597.032 755.302, 634.753 752.124 C 668.410 749.289, 699.250 749.438, 713 752.503 L 721.500 754.397 724.441 760.263 C 726.242 763.854, 729.746 768.333, 733.479 771.814 C 749.637 786.884, 769.330 789.742, 798 781.179 C 805.425 778.961, 816.675 775.724, 823 773.986 C 847.554 767.237, 871.510 755.877, 878.873 747.492 C 880.593 745.533, 882 743.496, 882 742.965 C 882 742.434, 884.003 742, 886.451 742 C 903.027 742, 917.223 733.342, 923.804 719.218 C 927.589 711.096, 928.158 698.189, 925.003 692.006 L 922.818 687.722 927.816 678.111 C 933.525 667.132, 937 656.708, 937 650.560 C 937 648.234, 936.141 643.668, 935.092 640.415 C 934.042 637.162, 932.441 631.095, 931.532 626.934 C 929.367 617.013, 925.078 609.561, 919.685 606.350 C 917.383 604.980, 912.697 602.203, 909.270 600.179 C 891.838 589.883, 860.764 560.868, 838.397 534 C 800.593 488.589, 768 436.750, 768 422.032 C 768 420.572, 769.345 413.555, 770.988 406.439 C 775.504 386.885, 774.681 370.833, 768.390 355.780 C 767.076 352.634, 766.010 349.484, 766.021 348.780 C 766.033 348.076, 767.946 346.175, 770.271 344.555 C 784.567 334.600, 804.409 316.338, 814.879 303.500 C 822.637 293.988, 827.134 286.907, 831.074 278 C 833.956 271.485, 834.399 269.384, 834.446 262 C 834.494 254.474, 834.185 252.964, 831.751 248.824 C 828.151 242.699, 823.285 238.745, 813.500 233.992 C 798.051 226.487, 781.518 223, 761.385 223 C 743.286 223, 731.493 226.128, 708.500 237.027 C 698.144 241.936, 676.338 250, 673.420 250 C 671.327 250, 665.412 241.543, 664.015 236.554 C 661.576 227.842, 664.416 224.759, 688 210.517 C 723.585 189.029, 739.872 174.611, 754.173 151.938 C 764.224 136.004, 768.932 120.783, 769.735 101.622 C 770.562 81.883, 767.646 69.953, 761.624 68.442 C 757.855 67.496, 755.260 69.542, 751.974 76.052 C 737.690 104.348, 711.519 128.676, 676.427 146.280 C 667.336 150.841, 645.155 159.424, 634.745 162.408 L 628.990 164.059 625.951 160.597 C 624.280 158.693, 620.984 156.203, 618.628 155.062 C 612.361 152.028, 598.029 149.098, 585.815 148.353 C 575.536 147.727, 574.916 147.806, 569.511 150.451 C 566.421 151.963, 563.369 154.037, 562.731 155.060 C 561.634 156.816, 561.464 156.825, 559.685 155.215 C 558.425 154.074, 556.095 153.508, 552.650 153.505 C 548.918 153.501, 545.996 152.709, 542.039 150.626 C 537.753 148.371, 534.823 147.643, 528.419 147.243 C 520.521 146.751, 519.976 146.864, 511.380 150.783 C 504.783 153.791, 497.930 155.790, 484.726 158.559 C 474.950 160.608, 466.726 162.060, 466.451 161.784 C 466.175 161.509, 466.793 159.307, 467.824 156.892 C 471.774 147.638, 479.090 124.012, 481.416 113 C 485.007 95.999, 486.299 83.424, 485.810 70.251 C 485.327 57.231, 483.690 52.091, 479.405 50.139 C 476.087 48.627, 475.682 48.676, 472.808 50.936 M 477.967 181.056 C 483.977 188.278, 485.331 190.796, 486.984 197.828 C 488.355 203.660, 487.754 211.259, 485.494 216.668 C 484 220.245, 484.407 220.807, 486.921 218.639 C 489.366 216.531, 498 211.729, 498 212.477 C 498 213.439, 492.929 222.185, 491.170 224.256 C 488.643 227.233, 490.431 227.172, 497.402 224.044 C 504.590 220.819, 504.675 221.060, 498.830 228.139 C 496.724 230.690, 495 233.029, 495 233.337 C 495 233.644, 496.238 233.505, 497.750 233.027 C 500.585 232.132, 516 230.644, 516 231.265 C 516 231.457, 512.968 233.839, 509.263 236.557 L 502.525 241.500 512.763 241.785 C 518.393 241.942, 523 242.421, 523 242.850 C 523 243.279, 520.078 244.662, 516.507 245.922 C 509.836 248.277, 508.824 250, 514.112 250 C 517.461 250, 530.735 252.819, 532.899 253.989 C 534.526 254.870, 530.034 256.550, 523.250 257.599 C 520.913 257.960, 519 258.539, 519 258.886 C 519 259.232, 520.913 260.242, 523.250 261.129 C 539.216 267.191, 548.793 271.510, 547.729 272.168 C 547.062 272.579, 544.156 273.211, 541.270 273.572 C 538.384 273.933, 536.204 274.514, 536.425 274.864 C 536.646 275.214, 542.480 277.300, 549.388 279.500 C 556.297 281.700, 561.960 283.810, 561.974 284.189 C 561.988 284.568, 559.862 285.159, 557.250 285.503 C 545.644 287.032, 545.595 286.918, 560.031 291.942 C 581.328 299.354, 586.367 302.424, 601.770 317.378 C 617.301 332.456, 629.854 349.882, 637.663 367.205 C 639.719 371.767, 643.341 378.738, 645.711 382.696 C 649.027 388.234, 650.165 391.285, 650.651 395.938 C 651.188 401.070, 651.817 402.535, 654.811 405.617 C 658.378 409.290, 665.038 412.938, 668.250 412.978 C 670.901 413.011, 670.346 414.614, 667.238 415.902 C 665.719 416.531, 663.131 418.144, 661.488 419.487 L 658.500 421.928 663 422.164 C 676.235 422.857, 675.686 422.751, 673.856 424.250 C 673.017 424.938, 670.627 427.637, 668.545 430.249 L 664.761 434.998 668.130 434.341 C 669.984 433.979, 673.933 432.855, 676.907 431.842 C 679.880 430.829, 682.468 430, 682.657 430 C 682.845 430, 683 432.276, 683 435.057 C 683 440.464, 684.733 448.717, 686.038 449.523 C 686.473 449.792, 687.715 447.422, 688.798 444.256 C 690.397 439.581, 690.909 438.876, 691.523 440.500 C 691.939 441.600, 693.904 446.325, 695.890 451 L 699.500 459.500 699.775 453.500 C 700.200 444.254, 700.729 443.916, 704.405 450.541 C 706.224 453.818, 709.632 459.425, 711.980 463 L 716.248 469.500 715.622 463.081 C 715.277 459.551, 715.228 456.895, 715.513 457.180 C 715.798 457.465, 719.905 462.828, 724.640 469.099 L 733.249 480.500 732.573 476 C 732.180 473.382, 732.266 471.918, 732.778 472.500 C 735.890 476.035, 741.832 483.973, 748.401 493.373 C 755.924 504.137, 757.168 505.019, 754.574 497.750 C 752.681 492.445, 754.032 493.100, 757.798 499.314 C 760.574 503.894, 764.752 513.221, 776.627 541.348 C 778.493 545.769, 783.679 567.114, 784.047 571.888 C 784.073 572.224, 785.354 570.068, 786.892 567.095 C 788.455 564.077, 789.988 562.172, 790.365 562.782 C 791.249 564.212, 793.033 583.137, 792.383 584.189 C 792.108 584.635, 792.313 585, 792.839 585 C 793.366 585, 794.919 583.100, 796.290 580.778 L 798.783 576.556 799.956 580.528 C 800.601 582.713, 801.368 587.200, 801.661 590.500 C 802.365 598.424, 800.013 601.945, 789.966 608 L 782.500 612.500 786.232 613 L 789.964 613.500 783.501 619.936 C 779.946 623.475, 777.236 626.569, 777.478 626.811 C 777.719 627.053, 779.745 626.519, 781.979 625.625 C 784.213 624.731, 786.271 624, 786.553 624 C 786.834 624, 785.303 626.362, 783.149 629.250 C 779.485 634.161, 776 640.134, 776 641.500 C 776 641.830, 779.760 638.934, 784.355 635.064 C 800.444 621.516, 810 617.374, 823 618.316 C 827.893 618.670, 832.759 619.806, 837 621.583 C 842.646 623.950, 845.142 624.356, 856 624.672 C 870.662 625.099, 872.935 625.296, 872.442 626.094 C 872.026 626.767, 876.315 628.281, 886.500 631.058 C 898.700 634.383, 908.826 633.247, 914.996 627.859 C 917.820 625.393, 918.455 624.133, 918.455 620.985 C 918.455 615.759, 914.454 610.940, 904.353 604 C 875.476 584.160, 842.666 550.947, 814.392 512.934 C 780.631 467.547, 764.035 438.110, 752.421 403.017 C 749.966 395.601, 746.213 385.251, 744.079 380.017 C 739.018 367.599, 736.458 358.006, 734.600 344.500 C 733.381 335.640, 732.410 332.235, 729.610 327 C 725.967 320.188, 721 304.673, 721 300.107 C 721 297.972, 719.544 296.316, 713.731 291.842 C 690.567 274.011, 664.398 250.242, 660.376 243.379 C 658.540 240.246, 657.604 236.926, 657.226 232.210 C 656.670 225.263, 655.926 223.880, 646.492 212.250 C 645.041 210.463, 644.225 209.002, 644.678 209.004 C 645.890 209.009, 652.135 212.885, 654.911 215.355 C 656.237 216.535, 656.941 216.825, 656.474 216 C 655.007 213.404, 647.721 203.619, 645.119 200.750 C 641.528 196.790, 644.290 197.308, 650.305 201.724 L 655.377 205.447 653.439 202.135 C 649.400 195.236, 642.803 189.543, 636 187.089 C 632.425 185.799, 627.362 183.669, 624.750 182.355 C 618.539 179.232, 618.698 180.924, 625.090 185.977 C 630.715 190.423, 630.544 190.519, 620.500 188.564 C 616.650 187.815, 613.368 187.326, 613.206 187.478 C 613.045 187.630, 615.857 190.339, 619.456 193.499 C 623.055 196.659, 626 199.618, 626 200.074 C 626 200.531, 623.862 200.256, 621.250 199.463 C 618.638 198.670, 615.925 198.017, 615.222 198.011 C 614.519 198.005, 616.202 200.946, 618.962 204.546 C 623.955 211.061, 626.468 215, 625.631 215 C 625.390 215, 622.385 213.414, 618.955 211.475 C 615.524 209.535, 612.549 208.118, 612.343 208.324 C 612.137 208.530, 614.225 214.037, 616.984 220.561 C 619.743 227.085, 622 232.564, 622 232.737 C 622 233.761, 615.478 229.328, 609.151 224.004 L 601.801 217.820 602.515 221.160 C 602.907 222.997, 603.852 226.017, 604.614 227.872 C 605.376 229.727, 606 231.677, 606 232.206 C 606 233.473, 599.908 228.604, 592.747 221.612 C 586.828 215.833, 585.763 216.103, 588.513 222.686 C 589.345 224.677, 589.805 226.529, 589.534 226.800 C 588.951 227.383, 581.090 220.481, 575.675 214.632 L 571.850 210.500 572.473 213.500 C 572.815 215.150, 573.358 217.400, 573.680 218.500 L 574.266 220.500 571.973 218.500 C 570.712 217.400, 567.581 213.247, 565.014 209.271 L 560.348 202.042 557.490 208.021 C 555.918 211.309, 554.316 214, 553.929 214 C 553.543 214, 552.661 210.963, 551.970 207.250 C 549.962 196.464, 549.718 196.102, 547.205 200.168 C 546.028 202.073, 544.089 204.502, 542.896 205.566 L 540.727 207.500 541.420 202.500 C 541.802 199.750, 542.338 196.730, 542.612 195.790 C 543.036 194.332, 542.474 194.429, 538.805 196.444 C 534.167 198.992, 523.312 202.645, 522.573 201.906 C 522.325 201.658, 523.434 198.765, 525.038 195.478 C 527.983 189.443, 528.624 186.989, 527.250 187.013 C 526.837 187.020, 522.995 188.145, 518.712 189.513 C 514.428 190.881, 509.778 192, 508.378 192 L 505.832 192 509.166 187.913 C 511 185.664, 513.175 182.874, 514 181.712 C 515.400 179.740, 515.367 179.652, 513.500 180.386 C 510.269 181.656, 497.646 182.619, 491.853 182.037 L 486.500 181.500 490.267 178.896 L 494.034 176.292 487.267 175.653 C 483.545 175.302, 478.796 175.011, 476.714 175.007 L 472.927 175 477.967 181.056 M 544.750 384.080 C 541.104 386.204, 543.357 391, 548 391 C 553.139 391, 554.975 385.701, 550.435 383.975 C 547.311 382.787, 546.958 382.794, 544.750 384.080 M 522.250 387.662 C 520.136 388.515, 520.854 393.389, 524.030 399.745 C 527.324 406.337, 531.636 410.255, 538.110 412.539 C 544.114 414.657, 544.176 414.315, 538.350 411.228 C 530.036 406.824, 525 399.205, 525 391.032 C 525 387.048, 524.696 386.675, 522.250 387.662 M 573 396.032 C 573 399.212, 570.541 404.315, 567.142 408.185 L 564.034 411.725 568.267 410.906 C 574.102 409.777, 581.365 409.808, 584.435 410.975 C 587.916 412.299, 587.685 411.319, 582.893 404.416 C 575.912 394.361, 573 391.893, 573 396.032 M 814.750 616.662 C 815.438 616.940, 816.563 616.940, 817.250 616.662 C 817.938 616.385, 817.375 616.158, 816 616.158 C 814.625 616.158, 814.063 616.385, 814.750 616.662 M 913.405 626.250 L 911.500 628.500 913.750 626.595 C 915.864 624.805, 916.455 624, 915.655 624 C 915.465 624, 914.453 625.013, 913.405 626.250 M 814.053 642.750 C 809.321 659.786, 819.401 675.260, 836.726 677.558 C 842.771 678.360, 851.660 676.057, 855.599 672.668 C 857.838 670.743, 858.093 670.041, 857.175 668.327 C 855.618 665.417, 852.288 663.462, 840.432 658.494 C 827.406 653.037, 821.655 648.985, 818.922 643.338 C 817.767 640.952, 816.433 639, 815.958 639 C 815.483 639, 814.625 640.688, 814.053 642.750" stroke="none" fill="black" fill-rule="evenodd"/>
</svg>